/* XPM */
static char *_c487fb235974c51bc2dcd7845613f65QCzjIDAAy23Qy7O0[] = {
/* columns rows colors chars-per-pixel */
"54 54 174 2 ",
"   c #1F1F1F",
".  c #2F220F",
"X  c #2C2417",
"o  c #2E2916",
"O  c #23211C",
"+  c #2C261B",
"@  c #2F2818",
"#  c #332711",
"$  c #332915",
"%  c #3B2D15",
"&  c #342A1A",
"*  c #382F1E",
"=  c #3E3015",
"-  c #37301E",
";  c #3A301E",
":  c #262626",
">  c #282725",
",  c #262827",
"<  c #2D2B27",
"1  c #272729",
"2  c #272928",
"3  c #2D2D2D",
"4  c #332C22",
"5  c #3A2F22",
"6  c #322F29",
"7  c #382F28",
"8  c #2E302F",
"9  c #363025",
"0  c #3B3125",
"q  c #35322C",
"w  c #3C3429",
"e  c #2F2F31",
"r  c #2F3130",
"t  c #323232",
"y  c #3C3733",
"u  c gray22",
"i  c #413117",
"p  c #483817",
"a  c #44331A",
"s  c #49351A",
"d  c #4E391B",
"f  c #543B1D",
"g  c #593E1F",
"h  c #443521",
"j  c #493721",
"k  c #4B3923",
"l  c #413529",
"z  c #453A2E",
"x  c #4C3B2D",
"c  c #543D25",
"v  c #5A3E20",
"b  c #553E28",
"n  c #453A32",
"m  c #4B3D31",
"M  c #523F31",
"N  c #5E411F",
"B  c #62421F",
"V  c #5D4021",
"C  c #5C432E",
"Z  c #4C4034",
"A  c #4F4138",
"S  c #534134",
"D  c #594436",
"F  c #574338",
"G  c #5B4539",
"H  c #5E483B",
"J  c #634421",
"K  c #694624",
"L  c #6D4824",
"P  c #62452D",
"I  c #68482F",
"U  c #714B26",
"Y  c #794E27",
"T  c #744C28",
"R  c #7A4E2A",
"E  c #775027",
"W  c #7D512B",
"Q  c #674730",
"!  c #644830",
"~  c #6C4B32",
"^  c #61473A",
"/  c #634C3C",
"(  c #734F35",
")  c #775136",
"_  c #7E5537",
"`  c #7D553A",
"'  c #5E6D74",
"]  c #646F6F",
"[  c #636F72",
"{  c #657073",
"}  c #6A7372",
"|  c #627178",
" . c #6B767A",
".. c #727773",
"X. c #7A7B76",
"o. c #757A7E",
"O. c #7E7E79",
"+. c #814F2C",
"@. c #83542E",
"#. c #88572F",
"$. c #87582E",
"%. c #865530",
"&. c #8B5731",
"*. c #865930",
"=. c #8B5932",
"-. c #80573C",
";. c #84593D",
":. c #895C3E",
">. c #915C35",
",. c #985E36",
"<. c #965F38",
"1. c #9A5F38",
"2. c #976037",
"3. c #9B6137",
"4. c #966038",
"5. c #9D623A",
"6. c #A3653D",
"7. c #A7683F",
"8. c #A9693E",
"9. c #8A5D41",
"0. c #8E6142",
"q. c #926544",
"w. c #A56640",
"e. c #A66940",
"r. c #AA6A41",
"t. c #B06D43",
"y. c #B16E43",
"u. c #B36E45",
"i. c #B46F45",
"p. c #B66F45",
"a. c #B66E46",
"s. c #B36E44",
"d. c #AF7142",
"f. c #B57046",
"g. c #B77346",
"h. c #B67245",
"j. c #B57245",
"k. c #B87447",
"l. c #BA7647",
"z. c #B97447",
"x. c #BC7847",
"c. c #B97548",
"v. c #BA7648",
"b. c #BB7949",
"n. c #BC7849",
"m. c #BC7849",
"M. c #8F786A",
"N. c #827F7A",
"B. c #827F7A",
"V. c #C07A47",
"C. c #C27B4A",
"Z. c #C87C4B",
"A. c #82817E",
"S. c #84817C",
"D. c #8A857F",
"F. c #89847E",
"G. c #8C857F",
"H. c #8C857D",
"J. c #8A847E",
"K. c #90877E",
"L. c #92887F",
"P. c #748690",
"I. c #748691",
"U. c #7D8C93",
"Y. c #8D8681",
"T. c #8D8680",
"R. c #8F8880",
"E. c #908780",
"W. c #908782",
"Q. c #908780",
"!. c #928980",
"~. c #918A80",
"^. c #938B80",
"/. c #928980",
/* pixels */
"P.| A.!.!.!.!.!.K.X.} | A.!.E.E.D.G.G.G.D.G.T.D.S...{ o.T.L.E.E.E.E.E.E.E.E.D.B...o.!.!.!.!.!.!.!.R.X.} [ P.",
"| 3 0.n.n.n.n.b.g.E j t :.n.i.i.r.r.e.r.8.r.r.w.>.N 9 G r.i.i.g.i.t.i.i.i.i.7.%.V / b.n.n.n.n.n.n.i.U a , | ",
"| 3 :.l.g.g.g.g.r.T j t :.g.t.r.6.6.w.6.6.6.6.5.=.N 9 G r.i.i.i.r.r.r.r.i.t.5.@.V / l.l.g.g.g.g.g.r.U a , | ",
"| 3 :.c.r.r.r.r.5.L j t :.i.r.6.3.4.4.5.5.5.5.,.@.V 9 D 6.r.r.r.r.7.r.7.r.r.4.W V / g.t.r.t.r.r.t.6.L a , | ",
"| 3 :.i.r.5.5.5.4.V * t :.n.w.5.5.>.>.>.3.3.3.,.#.N 9 S 3.w.5.5.5.5.5.5.5.6.4.W V H r.r.r.e.r.r.r.5.J % , | ",
"| 3 ` 7.3.,.,.,.=.V * t :.g.6.3.3.3.,.>.>.>.,.,.#.N 9 m >.,.1.,.,.,.>.,.,.>.&.T f H 7.6.5.5.5.5.5.>.V & , | ",
"| 3 ` 6.>.>.=.=.@.v * t :.n.6.1.3.3.5.3.>.>.>.>.%.N 9 S >.>.>.>.>.>.>.>.>.>.@.U f H e.3.,.,.,.,.,.=.v & , | ",
"| 3 ` 5.>.&.&.@.R f - t :.g.6.,.3.3.5.5.3.>.=.=.@.g 9 S &.=.&.&.&.&.&.&.&.#.R U f G 5.>.>.>.>.>.=.@.f & , | ",
"| 3 ` 5.&.@.@.@.T d - t :.i.6.1.3.3.5.5.<.>.>.=.W V 9 m %.&.@.@.@.@.@.@.@.@.T J f F 3.&.&.&.=.&.&.@.f & , | ",
"| 8 ` 6.@.R R R U d * t -.t.6.5.5.5.5.5.>.=.>.=.@.N 9 m W @.R R R R R R R R L J f F 2.@.+.@.+.R +.U f & 1 | ",
"| 3 ` 6.@.U L U K p * t -.8.6.5.5.5.5.,.>.>.>.&.W J w m T R U U U U U L U U K V p S >.W R R R R R K d & , | ",
"| 3 I %.U J J J g & > t ( 7.6.6.,.>.>.>.>.>.&.%.R J w z U T L L L L L L L K g f i S @.T L L U L L L s & , | ",
"| 3 k J f d d d s X , t ~ 6.5.5.4.>.>.=.&.&.@.R U N 9 z L J J J J J J J B g f s i m @.U L L L K L J i $ 2 | ",
"| 3 @ $ % % % # . , 3 t Q >.>.>.&.@.@.@.R T T L K g 9 w f f f f f f f f f f i i 3 m R L L L L L J f o : 3 | ",
"| 3 t 2 , t 3 , , 3 r t x V b b b c k k k k k k k q 3 t q ; - * * * 5 * * * * < 3 m R L K V V g c % + 2 t | ",
"o./ / / ^ H D S x l l y t t t t 3 3 3 3 3 6 t q t t t t t t t 3 3 3 3 w l l w w 3 m T L J N v f i @ 4 z G o.",
"!.n.m.n.c.g.f.r.5.>.=.:.9.9.;.-.( P t A :.:.9.9.9.;.` ) ( ~ Q Q C x 2 b U U J f 3 m K V g d d i @   f @.r.!.",
"!.n.n.n.n.n.n.l.k.g.g.l.c.c.g.r.4.R t S >.>.&.%.%.%.@.@.W W R R J k 3 k J J g s 3 w d s s = % @ O 2 K >.l.!.",
"!.n.n.n.n.n.n.l.g.p.i.h.t.t.h.t.<.R 3 3 t t r t 3 3 3 8 3 3 3 8 3 3 3 3 3 3 t t t t t 3 2 , , 2 3 = @.r.n.!.",
"!.l.n.n.n.n.c.g.t.t.t.t.r.r.t.r.1.R 3 q m Z m m z y t z z z z z z l w w t y S G G G G S S m m q 3 d >.g.n.!.",
"E.g.g.g.g.g.f.r.r.r.r.r.r.8.r.r.4.R 3 z T U U L J 5 e L L L L L J N f d r S 6.6.w.6.6.5.4.&.W 0 < J 6.l.g.E.",
"E.i.h.i.i.t.r.r.r.r.r.r.r.r.6.6.<.R 8 z L J J J J 4 3 B J V V V f f d s 2 G r.6.4.<.4.4.3.=.@.0 3 R t.g.r.T.",
"E.i.r.r.r.r.e.7.r.r.r.r.6.5.6.5.4.R 3 z L J V V V 4 3 q i i i i i i i i , G r.6.5.3.>.>.>.&.@.0 2 &.r.i.i.!.",
"D.6.5.3.2.<.1.4.>.>.>.>.=.=.=.=.=.T 3 z L J f f f 4 3 S G G G G x l 5 0 , G r.6.5.5.5.,.>.=.@.0 3 ,.6.5.5.F.",
"O.@.@.@.W W W W R T T R R R R W R K e z L V f f g 4 2 5.6.w.w.w.3.=.W T , G 6.5.3.,.,.,.,.=.W 0 3 @.=.@.@.O.",
"} l l l l w l l w w w l l l l l l w t z J g f f V 4 3 r.6.3.4.4.4.>.&.W , z @.W Y R R R Y T L 5 3 l 5 & & { ",
"| 3 t t t t t t t t t t t t t t t t t z J f f f V 4 3 r.6.5.3.>.>.>.&.W : < l l l l l l l l l < t 2 ,     ' ",
"| q ) 5.r.g.r.f.t.t.t.t.r.t.t.t.r.W t z K J f f N 4 3 r.w.5.5.5.,.>.&.W , w G G G G G D D S S S S m l w 6 | ",
"| x 6.f.n.x.C.Z.Z.Z.Z.Z.C.C.C.C.g.=.t l J J V f f 4 3 r.8.6.5.3.3.,.&.W 2 F 8.r.r.r.r.6.5.4.=.&.&.&.L g 9 | ",
"| S f.l.n.Z.Z.C.C.C.C.x.c.n.n.l.t.=.3 w s s f s s + 3 i.t.6.5.3.5.,.=.R , G t.r.r.5.<.<.>.&.&.&.&.@.T V 4 | ",
"| D l.n.n.V.n.n.n.n.c.n.n.g.g.g.r.=.3 q 4 4 9 4 4 < t i.r.6.5.3.3.,.&.W , D r.6.4.=.&.%.@.@.@.@.@.@.U J 9 | ",
"| D c.n.n.n.n.n.n.i.i.t.i.i.i.t.6.%.3 t t t t t t 3 t i.t.6.5.3.5.,.&.@.1 D 5.4.&.@.@.@.+.@.@.@.@.@.R J 9 | ",
"| D l.n.m.c.k.t.t.r.r.r.r.r.i.t.3.W 3 m U T T T L l t r.e.5.5.3.5.3.&.W , F 5.>.+.@.@.@.@.@.%.@.@.@.R K w | ",
"| S g.n.n.l.t.r.r.e.r.7.r.i.i.t.3.W e m R T U R T w t r.w.5.5.5.5.5.&.@., S 5.<.@.@.&.&.&.&.&.&.&.&.W L w | ",
"| S g.x.g.t.r.r.r.r.r.7.t.i.i.t.4.W 3 m W T U R U w t t.r.6.5.5.5.5.4.&.: m >.>.&.@.*.&.&.=.=.=.=.=.@.U l | ",
"| S g.l.r.r.r.r.r.r.r.7.r.r.r.r.4.W 3 m T U L T K w t r.r.6.5.5.5.6.6.=., S >.<.=.&.&.&.>.=.=.>.>.>.%.T l | ",
"| x 3.5.3.5.3.3.3.3.5.3.3.5.6.<.#.T 3 q k k k k j q t >.5.3.3.5.3.3.>.#., m @.=.=.@.@.@.@.@.@.@.&.=.W T w | ",
"| 7 R @.@.@.%.%.@.@.@.@.@.@.&.@.R K 3 3 t t t t t t t R @.@.%.@.@.@.W R 1 w L R T T T T T T T T T T K J w | ",
"| 3 w l l l l l l l l l l l l l l w 3 t / 0.q.9.Q n u w l l l z z l l l 2 3 w l w 4 4 4 9 w 9 5 4 w w w 3 | ",
"| t t t t t t t t t t t t t t t t t t t -.g.n.k.>.z t t t t t t t t t t t t t t t 3 3 3 t t t 3 3 t t t t | ",
"G.r.r.r.r.r.r.4.,.m %.w.r.i.i.g.7.%.b 3 :.c.f.6.@.z t h.i.i.i.i.i.i.i.i.i.f.i.i.i.i.i.i.i.i.i.i.i.i.i.i.M.U.",
"F.5.5.r.t.t.r.>.=.M 7.i.r.w.r.r.6.@.k t :.r.3.>.T 9 t r.r.6.5.5.6.5.5.5.5.5.6.5.5.6.8.8.r.5.5.5.5.5.5.5.6.D.",
"B.=.&.<.5.5.3.@.R M 7.t.r.3.3.3.>.R j r ;.r.>.&.U w t 5.3.=.%.=.=.=.=.%.=.&.=.=.=.=.=.=.=.=.=.=.=.=.=.=.&.O.",
"X.R R @.@.@.@.T L M r.5.<.&.&.&.R J a 3 I %.@.R K 5 2 %.%.R R R R T R R R R R R R R W W W T R R R R W R R O.",
"..N J K K K K J J S w.>.%.W W U J f 6 3 w V T L g + 3 T U J B V N B N V V B N N N J J J N N N N N B N N N ..",
"{ * * * * * * 0 6 M <.@.K J V f s 6 C Y b < & d s 6 3 h h 0 0 0 0 * * * & & & & & & & & & & & & & & & & * { ",
"| 3 3 t 3 t t 3 t n ! C k s h * 6 t =.>.W b , * 5 n S H G D S S m m w 9 + + , , 2 , , , , , , , , , , : 2 | ",
"| 3 D -.:.9.9.:.;.9.-.;.;.;.;._ n t t.r.>.W s 3 m =.e.c.l.g.d.r.6.5.3.>.>.=.:.:.9.:.:.:.:.:.:.:.;.-._ P q | ",
"| t -.g.c.l.i.i.r.r.7.r.r.r.3.&.z t t.6.=.@.v 2 S r.g.g.g.g.g.g.i.t.r.r.r.i.r.r.r.r.r.r.r.r.r.r.r.r.5.R 5 ' ",
"| 3 :.i.8.r.w.5.4.>.>.>.>.>.T f 4 t r.5.@.R g : D i.r.5.5.4.>.>.>.=.>.>.>.>.>.>.>.>.>.>.>.>.>.>.>.>.R B & ' ",
"| 8 ) 5.3.&.=.=.%.@.@.W R R V s 4 t 7.3.R K f , m 3.>.&.=.%.@.@.@.@.@.@.@.@.@.@.@.@.@.@.@.@.@.W R R K f + ' ",
"| 3 I #.%.W R R R R U L J J f i 4 t 3.=.L V d : z #.=.@.R R R R R R T R R R L L L L L L L L L L J B N s + ' ",
"| 3 n c f f f f s s a a i i * + < t D V s a 4 , w J K J N d f d f f s d s s a a a a a a a a a a a i % # O ' ",
"I.| | { } } } } { { { { { [ [ ' | |  .} } { | ' { } ..} } } } } } } } } { { { { { { [ { { { { { { [ ] ] ' I."
};
