/* XPM */
static char *_d6526ac9cb64c7d94327c077e8a9330HJEMLhGQBMG0LY4g[] = {
/* columns rows colors chars-per-pixel */
"54 54 193 2 ",
"   c black",
".  c #010101",
"X  c gray1",
"o  c #040404",
"O  c gray2",
"+  c #060606",
"@  c #070707",
"#  c gray4",
"$  c #0B0B0B",
"%  c #0C0C0C",
"&  c gray5",
"*  c #0E0E0E",
"=  c gray6",
"-  c #101010",
";  c #111111",
":  c gray7",
">  c #131313",
",  c gray8",
"<  c #151515",
"1  c #161616",
"2  c gray9",
"3  c #181818",
"4  c #191919",
"5  c gray10",
"6  c #1B1B1B",
"7  c gray11",
"8  c #1D1D1D",
"9  c #1E1E1E",
"0  c gray12",
"q  c #202020",
"w  c gray13",
"e  c #222021",
"r  c #222222",
"t  c #232323",
"y  c #252324",
"u  c gray14",
"i  c #252525",
"p  c #262425",
"a  c gray15",
"s  c #272727",
"d  c #282828",
"f  c gray16",
"g  c #2A2A2A",
"h  c gray17",
"j  c #2D2B2C",
"k  c #2B2D2C",
"l  c #2C2C2C",
"z  c #2D2D2D",
"x  c #2C2C2E",
"c  c gray18",
"v  c #2F2F2F",
"b  c gray19",
"n  c #313131",
"m  c #323232",
"M  c gray20",
"N  c #343434",
"B  c #353535",
"V  c gray21",
"C  c #373737",
"Z  c gray22",
"A  c #393939",
"S  c #3A3A3A",
"D  c gray23",
"F  c #3A3C3B",
"G  c #3C3E3B",
"H  c #3B3B3D",
"J  c #3C3C3C",
"K  c gray24",
"L  c #3E3E3E",
"P  c #3F3F3F",
"I  c #413F40",
"U  c gray25",
"Y  c #414141",
"T  c gray26",
"R  c #434343",
"E  c #444444",
"W  c gray27",
"Q  c #464646",
"!  c gray28",
"~  c #484848",
"^  c #494949",
"/  c gray29",
"(  c #4B4B4B",
")  c #4C4C4C",
"_  c gray30",
"`  c #4C4E4D",
"'  c #4E4E4E",
"]  c gray31",
"[  c #505050",
"{  c #515151",
"}  c gray32",
"|  c #535353",
" . c gray33",
".. c #555555",
"X. c #565656",
"o. c gray34",
"O. c #585858",
"+. c gray35",
"@. c #5A5A5A",
"#. c #5B5B5B",
"$. c gray36",
"%. c #5D5D5D",
"&. c #5D5D5F",
"*. c gray37",
"=. c #5F5F5F",
"-. c #5E605F",
";. c #536269",
":. c #54636A",
">. c #57666D",
",. c #58676E",
"<. c #5A6970",
"1. c #5B6A71",
"2. c #5D6C73",
"3. c #5C6D74",
"4. c #5E6D74",
"5. c #5D6E75",
"6. c #5F6E75",
"7. c #5F6D76",
"8. c #5F7077",
"9. c #606060",
"0. c gray38",
"q. c #626262",
"w. c gray39",
"e. c #646464",
"r. c #656565",
"t. c gray40",
"y. c #676767",
"u. c #686868",
"i. c DimGray",
"p. c #6A6A6A",
"a. c gray42",
"s. c #6C6C6C",
"d. c #6D6D6D",
"f. c gray43",
"g. c #6F6F6F",
"h. c #606F76",
"j. c #617077",
"k. c #637277",
"l. c #607178",
"z. c #637078",
"x. c #627178",
"c. c #627079",
"v. c #637279",
"b. c #647179",
"n. c #65747B",
"m. c #64757C",
"M. c #67747C",
"N. c #66757C",
"B. c #67767D",
"V. c #67757E",
"C. c gray44",
"Z. c #717171",
"A. c #727272",
"S. c gray45",
"D. c #747474",
"F. c gray46",
"G. c #767676",
"H. c #777777",
"J. c gray47",
"K. c #797979",
"L. c gray48",
"P. c #7B7B7B",
"I. c #7C7C7C",
"U. c gray49",
"Y. c #7C7E7D",
"T. c #7E7E7E",
"R. c gray50",
"E. c #6A7980",
"W. c #6B7A81",
"Q. c #6C7B82",
"!. c #6D7C83",
"~. c #6E7D84",
"^. c #6F7E85",
"/. c #718087",
"(. c #728188",
"). c #738289",
"_. c #74838A",
"`. c #75848B",
"'. c #748690",
"]. c #758592",
"[. c #778796",
"{. c #758994",
"}. c #7A8990",
"|. c #7B8A91",
" X c #7D8C93",
".X c #7E8D94",
"XX c #808080",
"oX c #818181",
"OX c #838383",
"+X c #848484",
"@X c gray52",
"#X c gray53",
"$X c gray55",
/* pixels */
"'.8.l.l.l.l.l.l.l.l.l.l.l.l.l.l.l.l.l.l.l.l.l.l.l.l.l.l.j.l.l.l.l.l.l.l.l.l.l.l.l.l.l.l.l.l.l.l.8.j.l.l.l.'.",
"l.x j x x x h x x M E E E E ^ E ~ ~ E E ^ E ^ 7 u D E R R R R R E E D x r h h h h h h h h x x x x k h x x n.",
"7.y u u u u u 1 r J J.D.D.I.D.D.D.D.D.J.D.D.#.  3 e.D.=.q.......#.=.E 7 @ 3 D D D D D N N x u u u u u r r 7.",
"B.D D J D D D 1 7 J J.D.A.D.A.D.D.A.J.J.A.=.J   7 A.s.#.' ..' #.' #.D =   3 =.a.a.a.a.e.e.' D D F D D H J B.",
" XI.I.I.I...J 3 7 J J.a.e.e.#.} e.e.q.#.e.E x   3 a.s.^ } e.e.e.^ ^ N =   3 a.J.I.I.J.J.I.I.I.I.I.I.I.I.I..X",
"~...a.q.e.^ D 1 1 E @Xe.#.q.q.q.=.#...} q.} x   $ E ^ =.#.....E =.E r $   3 a.A.#.......#.#.' ....^ #.=.=.`.",
").a.D.a.#.} N = = E OXq.} #.=.=.} ' ' } #.^ x   $ h R #.=.^ ..} q.E $     3 a.A.} ..' ' ' ^ #...q.} =.q.e.`.",
"!.#.q.q.#.E N =   R I.e...#.#.=.} ~ ' ' #.^ x   $ u x R N M x r 7 - @     1 e.J.} ..E ' ^ ' ..=...} ..q.q./.",
").=.e...} ^ M -   D D.A.q.e.^ } ^ ^ ^ ' ..J N   o 7 - - $ $ $           1 7 =.J.^ ' ^ } ' =.e.} ^ ^ } } } !.",
"~.' ' } } N r $   x #.q.#.' E J } =.....#...M     1 - $ = 1 1 r r r 7 3 7 h #.a.^ } ^ ^ R R E D J ..^ ' R E.",
"E.R R R J r 1 @   x } s.} ..J R ..#.' R } } N     1 h N R } #.s.a.e...E = h ' } R J M b h x h x M N N N N n.",
"j.u h x x @       h D s.#.=.^ E #.} ..' } ' x     @ R D.D.D.a.s.=.=.^ M @ = 1 3 - u r r r u u u u u u u u 7.",
">.$ $ = =         h M e.e.#.#.^ E ^ E } ..J x     = ^ J.D.=.} ..' ' J 3           $ $ $ $ $ $ $ $ $ $ $ $ >.",
":.                h x a.q.e.} } #.=.} =.=.J ^ 1   1 ' I.q.=.=.' =.} J =   $ h x x 7 $ r 7 r 7 r r r r r r 2.",
"_.q.q.q.q.q.=...3 = u } D.....' ' E } ..^ ^ N 3   1 ' A...q.=.=.=...N =   3 q.D.D.7 u E #.q.q.q.q.q.q.q.q._.",
"}.A.s.A.s.A.a.#.7 = h D q.#.=.} ^ ....#.E E J 1   1 ' s.q...' #.^ ^ M =   u D.D.#.$ h a.J.J.J.J.J.J.J.D.J.}.",
"`.=...#.=.} ' } 7 = u x E #.} #.} R J E J D u @   @ E ..' ^ N x h u 1 @ $ R D.=.^ $ M s.D.q.q.q.e...#.#.=.).",
"`.=...=.#...' D - $ u u N D N D M h r 1 1 - $       N J x x 1 = $ $ @   - ' A.=.^ $ M s.s.........} ^ R ' ~.",
"/.#...' #.....N = @ 7 u -               @ $ $ $ $ $ - x 7 r 7 3 1 - @   h e.s...R $ x a.q.#.#.#.#.#.^ ^ } ~.",
"E.' E D ^ #...M =   - R R h h h r 3 = @ 7 h N D J J ' =.e.s.e.#.' J -   ' I.s...J $ x a.s.' } } } } R R ^ !.",
"E.^ ....' ..E h $   u D.A.q.q.e.=.} 1 7 M } I.I.I.D.D.I.I.I.I.I.a.R -   ..J.q.} ^ $ x a.q.#.} } } E } ' } !.",
"~...#.#.=.} R 1 @   h A.#...=.=...#.= h J A.OXq.e.q.e.q.a.a.e.#...N =   =.I.....N $ u ^ ' R D D J J ' E ^ Q.",
"B.D N D D h 1       h s.e.e.#.#.#.E $ r R J.e.e.#.J ..=.} } =...} h $   =.I.#...x = 7   1 r r r r r u x x l.",
"2.3 1 @   @ $ $ $ $ M e.=.} e.q.' J @ 3 R J...=.....^ } =...} ..E h $   =.J.q...x = 7                   = <.",
">.= - 1 3 r x x x 7 D s.#.' #.#.' J   $ R J.#.....E J ..#.} ^ ' R h =   =.I.q.=.x = r $ $ = = = = = $     ;.",
"l.N ..e.a.a.q.q.=.u h s.q.' ' } ' J   $ J A.D.} ..' ' R ^ J E } R h $   #.A...q.x = M #.=.' D x u u 7 1 3 2.",
"B.E s.A.I.A.a.q.q.7 x a.#.#.' ....E = $ N q.I...} E ' J R E } ' D r     #.A...#.x $ J q.#.s.a.q.=.=...M r l.",
"B.' D.e.#...#...} J x e.#...q.#.#.^ 3   7 =.$Xe.q...} } } J } } J 3   @ ..a.=...x $ J e.#.=.=.#.=.#.E u 3 j.",
"B.' A.=.} #...} =.h x a...#.#.....R 7   7 ^ $Xa.q.#.' R E E ' ' N 1   1 ..s.q.#.x $ J a.q.#.#.#...=.' u 1 7.",
"n.' A.e.#.#.q...} 7 h J.=.#.^ =.#.R 7   3 J J.D.#.E } ' ' ' ' ' h @   1 ..e.=.^ x $ J a.....) ' ^ ' ..r 1 2.",
"B.' A.=.=.=.#...} 7 h I.#.......' J 7   1 x A.D.#.} ..#.} ' ^ J r     1 ' #.R 7 = $ D e.} #.} =...^ ^ 7 @ >.",
"B.' D.u.e.....=.#.7 u J.=.e.^ E #.} 7     7 ^ D.#.J D N h r $         1 7       r 1 3 N u x x x x x x 7   ;.",
"B.' D.#.=.=...^ ' 7 3 s.e.' q.#.' ^ 7     3 r M x r 3               @ 3 h r u h h h 7 $ $                 ;.",
"B.' D.=.#.=.=.=...7 - a.a.#.=...#.E 7     1 r @       @ = $ $ $ $ $ 3 r x h h h h h u u h - - - - - 1 = $ ,.",
"B.' D.=.=.=.#.#.} 7 = a.s...} } #.^ 7     @ M x u u u h M M M M M N D R ^ ..=.q.e.e.e.e.q.e.e.e.e.e...u 7 l.",
"B.^ A.q.q.#.=.=.R $ $ a.A.....^ ' E 7       D e.e.e.e.e.e.e.e.e.e.e.a.a.A.J.OX@X@X@X@X@X@X@XOXI.D.D...u 3 h.",
"B.' A.q.#...#.' N   $ e.e.e.E ..} E 7       D J.D.@X@X@X@XJ.OX@XJ.@X@X@XOXJ.A.e.s.s.A.A.q.A.A.A.A.s.N 7 = <.",
"l.^ a.=.} ..^ ^ N   $ #.e.#...#.^ R 7       D J.D.s.a.s.s.q.s.s.a.A.s.a.a.q.#.^ ..=.=.#.' #.=.q.q.q.J 7   ;.",
"7.J q.#.e.R N N 7   $ ..q.^ ..#.^ ^ 7       h I.J.#.' } #.#.#...=.' ' #.=...} ' =.' } ..} =.=.q.=.q.J 7   ;.",
"7.x ^ ^ J M x x =   $ ^ #.#.^ ' ^ R 7       $ D.J.q.=.} } } ^ ' ....} } =.' ^ ..q.' ' } E } #.} } #.J 7   ;.",
"7.1       x x x = $ r M D D D D D M 7         s.J.=...q.=.=.' e.E R ' ..} #.#.#.=.=.' J ^ ^ } } J D J 7   ;.",
"h.h h r $ $ @     $ 1                         } e.e.#...#.=.} ' ..} ' E ^ E ^ E J ..' ' ..} E ' E R J 7   ;.",
"7.r M N N N h 1 = - 3                         R J D M N D J ' } #.' R J R E J J R } ' ' ^ } ^ R R ^ D 7   ;.",
"7.M a.D.D.A.s.e...^ D h 7 1                 1 h 7 @   @ $ $ = x N M M M x M x M M M M M M M M x M M x 3   :.",
"7.N D.A.s.e.J.J.D.A.e...} ' R R R N M x u x M M h 7 1 1 1 @   $ 1 u u u u u u u u u u u r u u u u u 7 @ = <.",
"7.N D.s.q.=.q.#.#.a.a.s.A.a.A.s.D.s.A.s.s.D.I.s.s.a.a.N 7 u - $ @                                   $ - r h.",
"7.N A.a.=.^ E =.#.E ' } ..} ..^ q.' #...q.q.D.A.D.s.a.u @ u u D D u 3 = $ = = = $ $ $ $ $ $ $ $ $ $ u u h l.",
"7.N A.a.} } J ' =.} q...^ E ^ J E ^ } ....} e...=.e.E r   3 r D.s.s.a.q.#.^ x u R =.=.=.=.=.#.#.#.R x u h l.",
"7.N =.' G I D J E J E R J D J D D J R E R R ^ R R E D 3   @ 3 I.s.s.D.D.A.=.x x s.s.a.=.q.=.e.e.=.-.#.M r l.",
"7.x J h r r r r r r r r r r r r r r r r r r r r r r r 1     1 A.a.A.=.e.} R u ..e.' ....=...} } #.^ } 7 7 l.",
"7.7 @                                                       = = 7 - 7 r u u 3 ^ } E ^ } ^ ' ' ' } J D 7 7 l.",
"l.h 1 = $ $ $ $ $ $ @                                         x h 7 $ @       7 x 7 7 7 7 7 7 7 7 7 7 - 7 l.",
"n.N N N M M M M M M x u u u u u u u u u u u u u u u u u u u u N N M M h u u u x N u u u u u u u u u u u x n.",
"[.B.B.B.B.B.B.B.B.B.B.B.B.n.n.n.B.B.B.B.n.n.B.B.B.n.B.B.B.B.B.B.B.B.B.B.B.B.B.B.B.B.B.B.B.B.B.B.B.B.B.B.B.{."
};
