/* XPM */
static char *d7c5b9d52a074fcdcda79503be343aceV93ufr1mzSFVhsxR[] = {
/* columns rows colors chars-per-pixel */
"54 54 255 2 ",
"   c gray12",
".  c #202020",
"X  c gray13",
"o  c #232323",
"O  c gray14",
"+  c #252525",
"@  c #272727",
"#  c #282828",
"$  c gray16",
"%  c #2A2A2A",
"&  c gray17",
"*  c #2C2C2C",
"=  c #2D2D2D",
"-  c gray18",
";  c #2F2F2F",
":  c #302E2F",
">  c gray19",
",  c #313131",
"<  c #323232",
"1  c gray20",
"2  c #343434",
"3  c #353535",
"4  c gray21",
"5  c #373737",
"6  c gray22",
"7  c #393939",
"8  c #3A3839",
"9  c #383A39",
"0  c #39393B",
"q  c #3A3A3A",
"w  c gray23",
"e  c #3C3C3C",
"r  c gray24",
"t  c #3E3E3E",
"y  c #3F3F3F",
"u  c gray25",
"i  c #414141",
"p  c gray26",
"a  c #434343",
"s  c #444444",
"d  c gray27",
"f  c #464646",
"g  c gray28",
"h  c #484647",
"j  c #484848",
"k  c #494949",
"l  c gray29",
"z  c #4B4B4B",
"x  c #4C4C4C",
"c  c gray30",
"v  c #4E4E4E",
"b  c gray31",
"n  c #505050",
"m  c #515151",
"M  c gray32",
"N  c #535353",
"B  c #555354",
"V  c gray33",
"C  c #555555",
"Z  c #565656",
"A  c gray34",
"S  c #585858",
"D  c gray35",
"F  c #5A5A5A",
"G  c #5B5B5B",
"H  c gray36",
"J  c #5D5D5D",
"K  c gray37",
"L  c #5F5F5F",
"P  c #5F6E75",
"I  c #606060",
"U  c gray38",
"Y  c #626262",
"T  c gray39",
"R  c #646464",
"E  c #656565",
"W  c gray40",
"Q  c #676767",
"!  c #686868",
"~  c DimGray",
"^  c #6A6A6A",
"/  c gray42",
"(  c #6C6C6C",
")  c #6D6D6D",
"_  c gray43",
"`  c #6F6F6F",
"'  c #70726F",
"]  c #617077",
"[  c #627176",
"{  c #607178",
"}  c #637078",
"|  c #627178",
" . c #627079",
".. c #637279",
"X. c #64737A",
"o. c #66737B",
"O. c #65747B",
"+. c #64757C",
"@. c #67747C",
"#. c #66757C",
"$. c #67767D",
"%. c #68777E",
"&. c #69787F",
"*. c gray44",
"=. c #717171",
"-. c #727272",
";. c gray45",
":. c #747474",
">. c gray46",
",. c #747675",
"<. c #757577",
"1. c #777576",
"2. c #767676",
"3. c #777777",
"4. c gray47",
"5. c #797979",
"6. c gray48",
"7. c #7B7B7B",
"8. c #7C7C7C",
"9. c gray49",
"0. c #7E7E7E",
"q. c gray50",
"w. c #6A7980",
"e. c #697A81",
"r. c #6B7A81",
"t. c #6C7B82",
"y. c #6B7C83",
"u. c #6D7C83",
"i. c #6E7D84",
"p. c #6F7E85",
"a. c #6F7D86",
"s. c #707F86",
"d. c #728188",
"f. c #75848B",
"g. c #76858C",
"h. c #748690",
"j. c #768693",
"k. c #778796",
"l. c #758994",
"z. c #7A8891",
"x. c #7C8B92",
"c. c #808080",
"v. c #818181",
"b. c gray51",
"n. c #838383",
"m. c #848484",
"M. c gray52",
"N. c #858786",
"B. c #868686",
"V. c gray53",
"C. c #888888",
"Z. c #898989",
"A. c gray54",
"S. c #8B8B8B",
"D. c gray55",
"F. c #8D8D8D",
"G. c #8E8E8E",
"H. c gray56",
"J. c #829198",
"K. c #839299",
"L. c #84939A",
"P. c #85949B",
"I. c #88979E",
"U. c #89989F",
"Y. c #909090",
"T. c gray57",
"R. c #929292",
"E. c #939393",
"W. c gray58",
"Q. c #959595",
"!. c gray59",
"~. c #979797",
"^. c #989898",
"/. c gray60",
"(. c #9A9A9A",
"). c #9B9B9B",
"_. c gray61",
"`. c #9D9D9D",
"'. c gray62",
"]. c #9F9F9F",
"[. c #8A99A0",
"{. c #8B9AA1",
"}. c #8C9BA2",
"|. c #8D9CA3",
" X c #8F9EA5",
".X c #94A3AA",
"XX c #98A7AE",
"oX c #99A8AF",
"OX c #A0A0A0",
"+X c gray63",
"@X c #A1A1A3",
"#X c #A2A2A2",
"$X c gray64",
"%X c #A2A4A3",
"&X c #A4A4A4",
"*X c #A5A5A5",
"=X c gray65",
"-X c #A7A7A7",
";X c gray66",
":X c #A9A9A9",
">X c #AAAAAA",
",X c gray67",
"<X c #ACACAC",
"1X c gray68",
"2X c #AEAEAE",
"3X c #AFAFAF",
"4X c gray69",
"5X c #B1B1B1",
"6X c #B2B2B2",
"7X c gray70",
"8X c #B4B4B4",
"9X c gray71",
"0X c #B6B6B6",
"qX c #B7B7B7",
"wX c gray72",
"eX c #B9B9B9",
"rX c gray73",
"tX c #BBBBBB",
"yX c #BCBCBC",
"uX c gray74",
"iX c gray",
"pX c gray75",
"aX c #C0C0C0",
"sX c #C1C1C1",
"dX c gray76",
"fX c #C3C3C3",
"gX c gray77",
"hX c #C5C5C5",
"jX c #C6C6C6",
"kX c gray78",
"lX c #C8C8C8",
"zX c gray79",
"xX c #CACACA",
"cX c #CBCBCB",
"vX c gray80",
"bX c #CDCDCD",
"nX c #CECECE",
"mX c gray81",
"MX c #CFD1D0",
"NX c #D0D0D0",
"BX c gray82",
"VX c LightGray",
"CX c gray83",
"ZX c #D5D5D5",
"AX c gray84",
"SX c #D7D7D7",
"DX c #D8D8D8",
"FX c gray85",
"GX c gray86",
"HX c gainsboro",
"JX c #DDDDDD",
"KX c #DFDFDF",
"LX c #E4E4E4",
"PX c #ECECEC",
"IX c gray93",
/* pixels */
"h.{ { { { { { { { { { { { { ] { { { { { { { { { { { { { { { { { { { { ] ] ] { { { { { { { { ] { ] ] ] { { h.",
"+.0 0 0 0 0 0 0 0 s Q Q Q / Q Q Q Q Q Q Q Q Q # 0 N G Q T T T T J G b a ; 2 2 2 2 2 2 2 2 0 0 0 0 0 0 0 0 O.",
"a.B V V V V N V V 5.DXNXCXlXCXCXCXCXNXvXCXCX&X# V ;XtX;X3XOXOXOX].OXq.b # k _ >.>.>.>._ Q G b b b b b b x y.",
"x.5.5.5.5.5.5.k k 5.DXlXyXlXgXvXdXlXgXyXlX6X*.# G dXtXW.].).E.].E.]./ a # N 2XdXdXdXdX6XOXA.>.>.>.>.>.>.>.z.",
"oXCXCXNX8X].D.s a 5.DX8X;X&X].W.;X;XOX].;XA.V # V 2X].D.W.;X;X;XD.n.J a # V dXKXdXdXgXDXKXKXKXCXMXNXNXNXNXoX",
"|.;X&X&X;XE.5.0 a q.KX;X].;X&X&XOX].).W.&XA.V # r q.E.OX].E.OXD.W.Q k r # V dXdX].).).).].].E.).W.OX).).).I.",
" X2X).].].V.*.0 2 q.LX2XW.].OXOXE.E.E.W.].A.V # r J n.].OX].OXD.W.J 0 0 # V dXdXW.).E.E.E.D.].D.).].).E.].{.",
"U.&XOX].W.*.N ; # >.vX2X).].].OXW.A.E.E.].q.V o > b G q.J V V V V s 0 ; > N yXNXW.).A.E.D.D.W.W.).A.].W.D.K.",
"K.E.W.E.q.V j ; # / dXtX&X;XD.W.E.D.D.E.).*._ O # s a s 0 0 0 0 0 > # o a k &XNXD.E.D.W.E.W.D.].W.).OXW.E.K.",
"g.Q Q T N 2 > O # G OX2X].E.A.n.E.].E.W.W.n.G # # a a 2 2 r a b N V N s k N W.2Xn.D.V.V.5.*.Q J G G G G G d.",
"w.a r 0 0 O o O ; V A.dX).W.n.V.W.).E.V.D.n.J > # a N / >.).;XtX8X2XE.*.r N V.D._ / J G V k k s a r r r r %.",
"{ # # # # ; ; ; 2 N _ lXOX].A.A.).E.E.D.E.n.V > O 0 5.yXvXlX6XtX;X;X5.N # a b b s s a r r 2 > ; # O O O O P ",
"O.2 2 2 2 2 2 2 2 N T yX2XW.).D.A.D.V.W.E._ V > O 0 V.NXdXOXY.W.D.E._ s # 2 > > > > > > > > 2 > > > > > > o.",
"a.N r 0 0 0 0 0 0 b V &X].;XE.W.].OXW.].].*.*.0 O a A.CX].D.].D.].W.*.a # r N V V a ; k k k k k s k k k k t.",
"}.;X;X;X;X;XOXE.b > N D.tXW.E.D.E.A.D.E.V.q.J a   0 A.lXW.].].W.].E.Q a O N &XlXlXs N n.&X2X2X2X2X2X2X2X6X|.",
".XdXtXdXtXyX;Xq.k > N _ OXW.].E.D.E.D.W.*.5.Q 0   0 A.dX&XD.n.W.V.V.T a # T lXdX].; J 6XNXvXvXvXvXvXvXvXNXoX",
"{.OX).).].W.A.*.k ; b N n.].q.n.q.*.Q *.Q T b ;   ; n.).V.5.V k k a a 0 > n.gXOXD.; T gXlX;X&X&X;X).].].OXI.",
"{.OXW.].W.].D.R s ; k b Q / J J G b b s 0 2 ; o o # *./ b b 2 # # # # # 0 D.yXOXD.; T gXyXW.W.W.W.W.V.V.E.K.",
"I.].).D.].D.A.J a ; k b r > # O o o o o # ; ; ; ; > k T V b k s k a > ; J 6XtXOXV.; J 2X&X].).).].E.D.A.W.P.",
"K.E.A.q.D.).D.G a # k 5.q._ J V b s > # s V / / *.>.W.;X6XtX6X&X).5.0 > A.vX8X].5.; J 2X6XE.W.W.W.W.q.n.E.K.",
"J.D.W.).D.E.q.N r # Q gXyX2X2X;XOXW.k k Q ].CXCXvXyXgXlXlXlXlXlX2X*.> ; OXNX&X).*.; V &X&X].W.W.W.D.E.E.W.K.",
"P.).).W.].V._ s 0 # _ yX].).OXOX).].2 N >.gXvX6X6X&X;XOX2X2X;X].D.J ; > ;XNX).).J ; b V.V.>./ / _ *.n.A.D.K.",
"f.T Q Q Q N a 0 0 # _ tX;X;XW.].].q.; k q.vX;X;X].n.).].D.D.].D.D.N ; > 2XCX;X].V > a > 0 k k k k k b V V s.",
"w.r 0 2 > ; O O # 0 *.2X].A.&XOXV._ ; s q.vXE.].W.).D.V.n.).).W.5.N ; > 2XvXOXW.V > k ; # # # # O O # > 2 +.",
"{ > 2 0 s k b b G s _ tXW.E.).W.A._ # 0 q.NX].E.).A.n.V.A.D.A.].n.b ; > 2XNX&X].V > b r r a a a r 0 2 O # ] ",
"d.Q E.2XdXdXtXtX;Xb T tX].E.V.).D.*.> ; 5.gXtXE.E.D.W.q.A.V.V.].n.b # > ;XgXW.OXV ; T ].;XA.*.G b b k a k t.",
"f.5.yXNXlXyX8X2X;Xs T 8X].].n.W.).5.2 ; _ tXdX).D.A.D.q.A.D.W.W.*.k ; > &XlX).W.V ; >.6X&XtXyX6X;X;X]./ b a.",
"f.D.dX;X].).].].).V Q 8X].).&X).].q.r O k W.PX;X&XE.).D.E.q.D.OXQ s ; 0 &XdXOXW.V ; 5.2XW.].].W.).W.V.T k a.",
"f.A.yXOXW.].].E.].b T 8X).].).W.).>.a O s V.PX2X&X).D.V.A.A.W.W.T r # r OXdXOX).V ; 5.tXOXW.).].).].V.V a w.",
"f.D.dX&XW.W.&X).W.a J gX).].D.OX].>.a o r / DXtX].A.E.D.E.W.W.W.V 2 # r OXyX].n.V ; *.6XOXOX).E.E.].D.b a w.",
"g.D.dXOX].].).).].a G NXOX).).).E.*.a o 0 V yXgX].W.E.).W.W.D.*.b > ; a E.$X>.N a 0 / ;X].&X].].E.W.D.k r %.",
"f.D.dX2X;XW.OX&XW.a N vX].;XD.D.].n.a o > k D.tX].n._ J N k r 0 0 > > a k 6 0 0 k 0 0 J b V V V V V V k 0 +.",
"f.D.dX).].].).E.W.a s dX6XV.&X).E.5.a o ; s k _ T k r ; O o O O O o > a N k b N N N a ; ; # # # # # # # > +.",
"f.D.dXOXW.).].].).a 0 tX8X].).D.].5.a o # r k 0 > > # ; 2 2 2 2 2 2 0 s N V G G G G G G G b b b b b b s r &.",
"f.D.dXOXW.).).).V.a ; 8XtXW.A.A.].q.s O # 0 G / Q Q Q Q / / / / _ _ >.5.V.E.OX&X;X;X;X;X&X;X;X;X;X;X).Q k a.",
"f.A.yX&X].].].].*.; > 8XyXD.W.A.E.>.s # o > >.;X;X;X;X;X;X;X;X;X;X;X2XtXgXNXDXKXKXKXKXKXKXKXDXNXvXvXE.G a u.",
"f.V.yX&X].).].E./ O 2 6X6X;XA.).).5.k >   o q.gXNXKXKXKXKXNXCXKXNXKXKXDXDXNXgXyX2X6X6X6X&X6X6X6X6X6X_ s 0 w.",
"d.q.2XOXW.W.n.n.Q # r &X6X].).].D.*.k > o o >.gXlX6X2X2X2X&X6X2X2X8X6X2X2X&X).D.E.].].).D.).].OX].].Q s 2 +.",
"w._ &X].;Xq.J J a ; r W.;XD.).].D.5.k >   o N lXNX].E.E.).).).W.OXW.E.].OX).W.D.D.D.D.W.W.).].OX].].Q s 2 +.",
"w.T D.A.*.T V V > > r V.].].D.E.q._ k > o o 2 dXCX2XOXD.E.E.A.E.W.).W.W.OXD.A.D.].A.D.W.A.A.D.W.E.].Q s > +.",
"w.a # o o V V V > r k / _ Q Q Q Q G b > o o ; tXDXOXD.].W.W.D.;XA.q.D.).W.].].].D.OXD.n.V.D.W.W.n.5.Q a > +.",
"a.N b k r ; ; O # r a 2 > > > > > > > #   o ; ].6X].D.A.D.D.D.D.).W.D.A.D.A.E.A.n.E.D.D.).D.V.E.A.V.Q a > O.",
"w.b T / / Q G a 0 a s 0 # o O O O O O O O O > 5.*.J G G G G 5.n.W.W.A.n.V.V.n.n.V.E.D.D.V.E.V.V.V.D.Q a > +.",
"w.Q 2XgXlXlXgX2XE.n.*.V b r > 2 2 2 > 2 2 > a N s r 2 2 2 2 0 V J T T T T T T T T T T T T T T T T T b ; > +.",
"w./ gXdXtX6XvXNXvXdX&XE.D.A.n.n.n.>.*./ Q J G G N s a a a r 2 2 0 0 0 0 0 0 0 0 0 2 > > > > > > > > ; # r w.",
"w./ lXtX].&XOX).].6XdXgXlXdXlXgXlXgXlXdXdXyXdXtXtX8X6X*.s b a r r 0 0 0 0 2 > ; > > > > > > > > > > r a k u.",
"w./ lXtXW.].V.).).A.E.W.).W.E.D.&XE.).E.&X&XtXgXlXgX6XJ 2 b b / >./ V a r r a a r r r r r r r r r r b b N a.",
"w./ yX6XW.].V.E.].W.&X).D.A.E.n.A.D.E.).].W.&XW.;X;Xn.s # s k vXtXyXdX6XOXq.V b E.;X2X;X;X;X;X].E.q.T b N a.",
"w./ OXV.' >._ *.5.>.q.>.*./ >._ _ *.>.5.5.>.5.>.5.5.Q k ; 2 a KX4X8XdXdXyX).G T vXtXtX2X6X2X6X2XOX%X&XT h a.",
"w.J *.s 2 0 0 0 0 0 0 0 0 0 0 6 0 0 0 0 0 0 0 0 0 0 0 0 ; # r 8X<X8XOX>.W.q.N E.;XW.].].;X].W.W.].D.D.a a a.",
"u.s ; # # O O O O O O O O O O O O O O O O O O O O o O o O # 0 a s r b b b b s A.D.n.V.D.V.V.A.A.D.5._ a a a.",
"a.N s a r 2 2 2 2 2 2 > > > > > > > > > > > > > > > > > > > 2 V b a > # # # > k V a a a a a a a a a a 2 a a.",
"&.a a a r r r r r r r 0 0 0 0 0 0 0 2 0 6 2 0 0 0 0 6 0 0 0 0 a a a 0 0 0 0 0 r a > > ; > > > > : ; > > 0 w.",
"k.o.+.+.+.+.+.+.+.+.+.+.+.O.+.+.+.+.+.+.O.+.+.+.+.+.O.O.+.+.+.+.+.+.+.+.+.+.+.+.O.+.+.O.+.+.+.+.+.+.+.+.+.l."
};
