/* XPM */
static char *_a3e6bbc263f4e4ee910fc3219decf1drpTOK2SPF6ZZJKwK[] = {
/* columns rows colors chars-per-pixel */
"54 54 211 2 ",
"   c #36332D",
".  c #3C3C3C",
"X  c #353535",
"o  c #593D1E",
"O  c #4B3925",
"+  c #493B2B",
"@  c #553E26",
"#  c #593F24",
"$  c #4B3E31",
"%  c #443D37",
"&  c #553F32",
"*  c #3E403F",
"=  c #5B4024",
"-  c #5B432B",
";  c #52402A",
":  c #4B433D",
">  c #454038",
",  c #564335",
"<  c #54463A",
"1  c #5D4A3C",
"2  c #58463A",
"3  c #6D4925",
"4  c #62482F",
"5  c #654529",
"6  c #714B27",
"7  c #734D29",
"8  c #794E2A",
"9  c #7D512C",
"0  c #77512D",
"q  c #634A32",
"w  c #6D4B32",
"e  c #634D3F",
"r  c #664B39",
"t  c #6F5035",
"y  c #745239",
"u  c #7C553B",
"i  c #775439",
"p  c #734E31",
"a  c #3F4140",
"s  c #444444",
"d  c #474749",
"f  c #4B4B4C",
"g  c #474847",
"h  c #544B44",
"j  c #584D44",
"k  c #57514B",
"l  c #535353",
"z  c #5A5958",
"x  c #644E41",
"c  c #694F42",
"v  c #665143",
"b  c #695444",
"n  c #6B564A",
"m  c #6C594B",
"M  c #735C4D",
"N  c #795D4C",
"B  c #715547",
"V  c #685C54",
"C  c #765F51",
"Z  c #7D614F",
"A  c #776051",
"S  c #7E6454",
"D  c #7F685A",
"F  c #66757C",
"G  c #69767D",
"H  c #67787F",
"J  c #69787F",
"K  c #6E7575",
"L  c #727773",
"P  c #767974",
"I  c #777B7A",
"U  c #786A61",
"Y  c #82542D",
"T  c #8A562F",
"R  c #865530",
"E  c #8A5630",
"W  c #8C5A32",
"Q  c #82593E",
"!  c #80563D",
"~  c #925C35",
"^  c #965F38",
"/  c #9C5F39",
"(  c #995F37",
")  c #976037",
"_  c #996237",
"`  c #976039",
"'  c #9D643A",
"]  c #A3653D",
"[  c #A7683D",
"{  c #A96A3E",
"}  c #845C42",
"|  c #8E6348",
" . c #966647",
".. c #816554",
"X. c #876C5C",
"o. c #8B6E5D",
"O. c #876957",
"+. c #8B705F",
"@. c #946E58",
"#. c #AC6B41",
"$. c #A36A47",
"%. c #B16E43",
"&. c #B47145",
"*. c #BA7446",
"=. c #BE7847",
"-. c #BB7548",
";. c #BD7949",
":. c #A77454",
">. c #B47B59",
",. c #8D7364",
"<. c #8B776B",
"1. c #927868",
"2. c #8B7D74",
"3. c #8C766B",
"4. c #C0774A",
"5. c #C37B4B",
"6. c #CA7D4D",
"7. c #D07F50",
"8. c #BE805B",
"9. c #86827C",
"0. c #BB8668",
"q. c #BE9178",
"w. c #BD8F75",
"e. c #CD814F",
"r. c #D2824F",
"t. c #CE8251",
"y. c #C3835B",
"u. c #D48351",
"i. c #DA8653",
"p. c #DC8954",
"a. c #D88B5A",
"s. c #DD915F",
"d. c #E28B56",
"f. c #E58D59",
"g. c #E98E59",
"h. c #E18755",
"j. c #E6905B",
"k. c #EB915A",
"l. c #F2955C",
"z. c #F79A5E",
"x. c #F99A5F",
"c. c #FCA25E",
"v. c #FBA85C",
"b. c #C48E6E",
"n. c #C48967",
"m. c #D58E61",
"M. c #C7916E",
"N. c #DA9369",
"B. c #C49374",
"V. c #C4967B",
"C. c #C6997F",
"Z. c #CA9779",
"A. c #DC9B73",
"S. c #C28F70",
"D. c #EC9562",
"F. c #EE9964",
"G. c #E39869",
"H. c #F39A64",
"J. c #FA9D63",
"K. c #F49E69",
"L. c #F89E69",
"P. c #F19661",
"I. c #FCA364",
"U. c #F4A16E",
"Y. c #FBA36E",
"T. c #FDA86F",
"R. c #F5A473",
"E. c #FAA673",
"W. c #FBA874",
"Q. c #FCAD7C",
"!. c #F5A879",
"~. c #FCB07F",
"^. c #E8A379",
"/. c #697780",
"(. c #6C7A82",
"). c #778994",
"_. c #7A8285",
"`. c #988C83",
"'. c #828B91",
"]. c #8B8F91",
"[. c #A19289",
"{. c #A69B93",
"}. c #A79F9C",
"|. c #A7A09B",
" X c #A8A09D",
".X c #A6A4A2",
"XX c #A8A6A4",
"oX c #C49983",
"OX c #C79B83",
"+X c #C8A590",
"@X c #FCAF81",
"#X c #F8AD83",
"$X c #FCB285",
"%X c #FCB58C",
"&X c #F9B78E",
"*X c #FCB993",
"=X c #FCBC9A",
"-X c #FDB792",
";X c #ECA780",
":X c #FCBFA0",
">X c #FCC09C",
",X c #FCC3A5",
"<X c #FCC3A4",
"1X c #FCC7A9",
"2X c #FCC9AD",
"3X c #FCCDB2",
"4X c #FCD3BB",
"5X c #FDD1B7",
"6X c #FCD9C3",
"7X c #FCDBC9",
"8X c #FDE2D1",
/* pixels */
").(.].XX.X.X.X.X X`.I (.]..X|.|.{.{.{.{.{.{.{.{.[.9.I '.{.|. X X X X X}.|.|.{.`.9.'..XXX.X.X X X.X|.`.I H ).",
"J g +X5X3X,X,X,X=X5.t f oX,X-X-X$X~.~.~.Q.Q.~.Q.D._ 2 ,.$X-X=X=X=X=X=X*X-X-XQ.p._ 2.3X<X,X,X,X,X,X-X-.w . J ",
"J g oX1X,X=X=X=X$X*.t f oX<X%X$XQ.W.W.W.W.W.W.Y.f.^ 2 ,.$X-X*X*X%X%X%X%X-X%XY.u.' 2.,X<X:X=X=X=X=X$X-.w . J ",
"G g C.>X%X$X$X$XU.#.t f oX=X@XW.L.H.H.J.J.J.J.H.i.) 2 +.Q.$X$X$X~.$X~.~.$X$XK.e.' 2.*X-X%X%X$X$X%XW.&.w . J ",
"J g V.-X$XE.Y.Y.D.] 4 f oX,XQ.Y.J.z.l.z.J.J.J.l.i._ 2 O.K.W.Y.Y.Y.Y.Y.Y.Y.Y.D.6./ 1.~.~.@X~.~.~.~.Y.] 5 . J ",
"J g b.Q.L.J.x.z.h.^ 4 f oX:XW.x.I.x.x.l.l.l.J.z.i._ 2 ..j.J.x.x.x.x.z.x.x.z.p.4.~ 1.Q.E.Y.Y.Y.Y.Y.k.^ - . J ",
"H g n.W.l.k.k.g.u.^ 4 f oX,XW.c.v.c.J.J.l.l.l.z.u.) 2 S j.P.k.k.k.k.k.k.k.g.r.=.~ 1.W.J.x.z.x.x.z.f.^ - . G ",
"J g n.Y.g.p.i.i.5.W q f C.:XW.x.x.v.Y.Y.J.l.l.k.u.^ 2 ..f.j.h.h.h.h.h.h.p.p.5.&.W ,.Y.k.g.g.g.g.g.r.~ # . G ",
"J g n.Y.h.u.u.u.=.R - f V.=XW.c.I.c.Y.Y.J.l.l.k.e.( 2 S p.h.u.u.u.u.u.u.u.u.=.{ W o.L.g.h.p.h.h.p.6.W @ . J ",
"J g b.E.i.5.5.5.*.Y - f B.%XT.I.J.Y.Y.J.l.l.k.f.u.] 1 S e.u.5.5.5.5.5.5.5.5.#.] Y O.k.u.6.6.6.6.6.-.W @ . J ",
"G g S.W.6.-.-.-.#.9 ; l M.Q.Q.Y.Y.Y.I.x.l.k.g.h.t.{ 1 C 5.6.=.-.-.-.*.-.-.*.{ / Y O.g.6.5.5.5.5.5.%.Y @ . J ",
"J g :.a.%.[ [ [ _ - % l >.~.W.Y.K.l.z.l.k.g.h.u.5.{ 1 M *.-.#.#.%.#.#.#.#.#.` Y 8 ..i.;.*.*.*.*.*.#.8 @ . /.",
"(.s u ] W T E T 9 O X l >.W.Y.Y.H.k.g.g.h.h.u.5.&.' 1 M %.#.] ] [ [ $.] ' ` R 9 7 S r.*.#.#.#.#.#.] 3 O . H ",
"H s O # o o = o o X > f :.l.l.k.h.u.6.5.5.;.;.%.$.~ 2 n ~ ~ ~ ~ W ~ ~ ~ W Y 8 7 s S 6.#.#.#.{ [ ] ~ O X s H ",
"(.g g g s g g . . s g l N  .| } Q ! u Q Q Q Q Q u : s l j q q - - - - - - - 4 : a S 5.#.[ ' ' ' ~ 3 + . g (.",
"'.2.2.2.,.1.+.O.M v b z l g g g g g g d g g g g g g f l l l g g g s s j x x 1 1 s A -.#.] ' _ W 7 O $ b <.'.",
"XX2X2X2X<X=X-X$X!.G.N.Z.OXC.B.M.>. .f U V.V.C.C.C.Z.b.y.8.>.:.$. .B s Q -.*.[ W a M #.' ^ E Y 3 O X W t.=XXX",
".X3X3X1X1X,X,X<X=X=X=X>X=X>X=X%XH.5.g S G.G.m.m.m.a.t.t.e.6.5.5.#.u s y #.[ ^ 9 a v R 9 8 3 5 O   . { G.<X.X",
".X3X3X2X,X<X,X<X=X=X=X=X*X-X=X%XK.5.s s g g g g g g g g g g g g g g g g g g f f f f g s . . . s s 5 t.%X3X.X",
"XX1X2X<X<X,X<X=X%X%X%X%X$X~.%X$XK.4.s h A S S M n h f M M M M M M m b b l V X.,.,.X.X...S N M h s E N.<X2XXX",
"|.*X=X:X:X=X-X%X$X~.~.~.~.Q.~.~.K.4.g M *.*.*.&.[ 2 f %.%.#.#.#.] _ W Y g X.!.W.W.W.W.L.z.d.r.e . [ R.:X:X X",
"|.-X-X*X*X%X$X~.~.Q.~.~.$X~.W.W.H.4.g M #.[ ] ] ] , f [ ' ` ` ` ^ ~ Y 9 s ,.~.Y.H.H.H.H.J.k.u.e s *.%X=X%X{.",
"|.-X$X~.~.~.Q.~.~.~.$X~.W.Y.Y.Y.P.-.d M #.] _ / ' , s j 7 7 7 7 3 3 3 3 . ,.~.W.Y.J.l.l.l.f.u.e . p.$X-X-X|.",
"{.!.R.K.K.K.K.H.F.F.F.F.j.g.g.g.h.*.g M #.' ~ W ^ , s ..X.X.,.X.N e 1 , . ,.~.W.Y.Y.I.z.z.k.u.e g x.W.W.R.{.",
"`.i.u.6.6.6.6.6.5.4.4.5.5.5.5.6.5.{ g M #.` W ~ ^ , . R.W.W.Q.Q.K.f.=.] . ,.Q.Y.J.x.x.z.z.g.t.e g p.j.i.u.`.",
"I x x x x x x x x 1 1 x x x x x x 1 f M [ ^ W ^ ' , g -XW.H.H.H.H.P.e.[ . M t.e.6.6.6.5.5.=.%.1 d v 1 , & K ",
"(.g f f f f f f f f f l l l l l f f l M [ ` ~ ^ _ , g -XW.L.L.l.l.k.e.[ X : v b v v v b v x x : g s .   X F ",
"G h y.R.%X=X=X=X>X>X>X>X>X>X=X=X%Xy.l M [ ] ^ ~ ( , g -XQ.Y.Y.Y.x.l.e.[ . k ,.,.,.,.,.,.o.o.O.......b 1 : G ",
"G M R.*X1X5X6X7X8X8X7X7X7X7X6X5X<Xm.f m ] ] _ ~ ^ , g *X@XE.J.c.J.x.e.[ s o.&X%X$XQ.$XW.Y.K.k.d.d.h.%.` 2 G ",
"J S -X1X5X6X6X6X6X6X4X3X2X2X1X,X%XN.g v Y Y E 9 9 $ s >X%XW.J.v.x.z.e.[ . ,.-X%X$XE.K.H.k.d.d.d.d.i.*./ < /.",
"J D =X2X4X4X4X5X2X2X2X1X,X:X=X*X@Xs.g k < < , < < % g >X%XW.J.c.x.z.t.[ . +.@XQ.K.j.d.p.u.u.u.u.u.7.*.' 2 G ",
"H D >X<X3X2X<X,X,X=X=X=X*X-X*X%XW.u.g l l l l l l g g >X%XW.I.J.v.x.e.[ . o.E.H.p.7.7.7.7.7.7.7.7.7.5.#.2 H ",
"J D >X2X,X<X=X-X%X$X~.~.Q.$X=X*XK.e.g C *.-.;.=.*.x g -XQ.Y.I.J.Y.L.e.[ . o.Y.j.7.u.u.u.u.u.i.u.u.u.5.#.1 H ",
"J S <X3X<X=X%X~.~.~.Q.~.$X-X=X*XK.t.d A 5.=.-.5.*.1 g -XQ.E.Y.J.Y.L.u.{ . X.Y.D.u.u.p.p.p.p.i.h.p.p.6.&.e (.",
"J S <X1X:X%X$X$X~.$X$X~.%X*X*X%XK.e.g M 5.=.-.5.*.1 g =X$XW.Y.Y.E.Y.p.%.. ..P.l.p.p.i.p.h.f.f.f.f.f.u.*.x J ",
"J S =X>X%X$X$X$X~.$X$X~.$X$X$X$XK.6.g M =.*.*.-.%.1 g *X@XE.Y.Y.Y.W.s.&.. Z H.l.f.p.p.h.f.g.g.g.g.g.u.-.x J ",
"H N U.W.L.L.K.L.L.L.L.L.J.W.W.H.p.*.s < u Q Q u t < g R.E.L.K.L.L.L.i.%.. M p.g.p.u.u.u.u.u.u.u.p.p.6.*.x J ",
"H 1 5.i.p.i.p.p.p.p.p.p.p.i.f.u.5.#.s g g f f g g f l 6.p.i.p.p.p.p.5.[ . e *.4.=.*.*.*.*.-.=.*.*.*.&.#.1 J ",
"(.g j x v v x c v v v v x v x x x 1 g z :.OX+XOX>.V z e v v b b b v x 1 s : 1 e e , , , 1 1 1 , , 1 1 1 : J ",
"(.l l l l f l f f f f f l l l l l l f l M.>X,X=XG.M z f f f f f f f f f f f f f f g g g g f g g g f f f f (.",
"{.~.~.~.~.~.~.K.x.M u.Q.~.-X-X-XQ.u.Q d oX<X-XW.i.n z =X*X=X=X=X=X=X=X=X=X=X=X=X=X=X=X=X=X=X=X-X-X=X=X=X3XXX",
"{.W.W.@X%X%X$XF.h.Z Q.-X$XQ.$X$XR.i.u g C.%XJ.k.5.2 g @X$X!.W.W.W.W.!.W.E.W.W.W.W.!.#X#X#XE.W.W.W.W.W.R.!.{.",
"[.g.g.H.W.W.K.i.6.Z Q.%X@XJ.K.L.k.5.y g B.Q.l.p.*.2 g Y.K.g.g.f.g.g.g.f.f.g.f.g.g.g.k.k.k.g.g.g.g.g.k.g.p.`.",
"`.5.5.u.i.i.u.-.#.S Q.R.P.d.d.h.5.#.w g :.a.i.6.#., s p.i.5.5.5.5.5.5.5.5.5.5.5.5.5.5.5.5.5.5.5.5.5.5.5.5.`.",
"9.' [ #.{ #.{ ] ] S Q.D.i.5.5.4.#.~ : s j  .*.#.^ $ s *.*.] ' ' ' ' ' ' ' ' ' ' ] ] [ [ ] ' ' ' ' ' ' ' ' 9.",
"I - - 4 4 4 4 w : N D.t.#.' _ W p < | 5.} % - Y 0 : g y t q q q q - - - - - - = - - - - - - - - = - - - - L ",
"J a g g d g g g g V :. .u y w 4 : f s.D.5.} . - 2 m X.<.3.+.X...Z m e 1 $ % . . * . . . . . . . . . . . . J ",
"G s @.B.V.OXoXV.B.C.Z.V.q.w.q.0.n l %X@Xj.6.y g m G.#X3X2X=X%X#X;X^.A.A.M.B.V.Z.V.V.V.V.V.V.Z.V.B.b.0.$.< J ",
"J g B.*X=X=X=X-X$X$X$X$X$X$XK.N.B l %X!.g.r.( . ..%X:X,X,X>X=X=X*X&X$X$X%X-X$X$X$X$X$X$X$X$X$X$X$X~.U.6., H ",
"J g V.-X~.~.Q.Y.H.l.l.l.l.l.-.~ < f ~.W.i.5.' . D *X$XE.Y.H.k.l.l.l.l.l.l.l.l.l.l.l.l.l.l.l.l.l.l.l.5.[ , F ",
"J g 0.R.K.g.f.h.p.u.u.6.6.4.] 9 > f Q.K.5.%.W X N K.P.f.h.p.i.i.i.i.i.i.i.u.u.u.u.u.u.u.u.u.u.6.5.;.#.~ $ F ",
"(.g :.p.u.6.5.5.5.4.*.*.#.{ ~ 6 > f U.f.%.' Y X b h.k.u.6.5.5.5.5.5.4.5.5.4.*.&.&.&.&.&.%.&.&.&.#.[ ` 9 $ H ",
"J g m Q Y Y Y 9 9 7 7 7 3 3 4 $ % f @.' 9 7 < . 2 [ %.] ) W R Y Y Y 9 9 7 7 7 6 6 6 6 6 6 7 7 6 3 3 3 o   F ",
").(.(.I P P P P L L L L L L K F G (._.I P L /.H I 2.9.9.I I P P P P P P L L L L L L L L L L L L L L L K F )."
};
